<svg id="Capa_1" data-name="Capa 1" xmlns="http://www.w3.org/2000/svg" viewBox="0 0 81 50"><path class="cls-1" d="M17.35 3.02h4.33v4.2h-4.33zm54.93 4.06V3H68v30.46c-.05 1.74 2.11 2.85 4 2.85h.31V11.14h4.27V7.08Z"></path><path d="M78.54 3a2.09 2.09 0 0 1 1 .26 1.84 1.84 0 0 1 .75.74 2.14 2.14 0 0 1 .26 1 2 2 0 0 1-.26 1 1.91 1.91 0 0 1-.74.75 2 2 0 0 1-2 0 1.91 1.91 0 0 1-.74-.75 2 2 0 0 1-.26-1 2 2 0 0 1 .26-1 1.84 1.84 0 0 1 .75-.74 2.08 2.08 0 0 1 1-.26m0 .33a1.62 1.62 0 0 0-.81.22 1.51 1.51 0 0 0-.63.62 1.81 1.81 0 0 0-.22.84 1.81 1.81 0 0 0 .22.83 1.52 1.52 0 0 0 .62.61 1.64 1.64 0 0 0 .82.23 1.71 1.71 0 0 0 .84-.23 1.56 1.56 0 0 0 .6-.61 1.69 1.69 0 0 0 0-1.67 1.54 1.54 0 0 0-.62-.62 1.69 1.69 0 0 0-.83-.22m-.87 2.78V4h.74A1.73 1.73 0 0 1 79 4a.54.54 0 0 1 .28.21.59.59 0 0 1-.07.72.67.67 0 0 1-.45.2.5.5 0 0 1 .18.11 2.26 2.26 0 0 1 .32.43l.27.42h-.43l-.19-.34a1.94 1.94 0 0 0-.36-.5.47.47 0 0 0-.28-.07H78v.91ZM78 4.9h.42a.67.67 0 0 0 .41-.09.3.3 0 0 0 .17-.24.27.27 0 0 0-.06-.17.26.26 0 0 0-.14-.11.94.94 0 0 0-.35 0H78Z" class="path__1"></path><path class="cls-1" d="M.93 3.01h4.1v12.27h4.08V3.01h4.16v33.32H9.11V19.77H5.03v16.56H.93V3.01zm16.43 8.13v21.21a4 4 0 0 0 3.54 4h.78V11.14Zm29.48-4.97A4 4 0 0 0 43 3h-.24v33.34H47v-29a4.16 4.16 0 0 0-.17-1.18M63.91 17a6.41 6.41 0 0 0-12.77 0v13.55a6.41 6.41 0 0 0 12.77 0V17m-4.29 17.13h-4.2V13.31h4.22ZM38.64 17a6.42 6.42 0 0 0-6.39-5.82h-6.44v29.24h4.31V36a6.57 6.57 0 0 0 2.13.37 6.43 6.43 0 0 0 6.39-5.82c.02-.24.02-13.39 0-13.55Zm-4.31 17.14h-4.2V13.32h4.22ZM.93 44.21h75.62v2.09H.93z"></path></svg>